<svg width="24" height="24" viewBox="0 0 24 24" fill="none" xmlns="http://www.w3.org/2000/svg">
<g clip-path="url(#clip0_9310_12017)">
<path d="M23.6971 11.8485C23.6971 18.3924 18.3924 23.6971 11.8485 23.6971C11.6028 23.6971 11.3591 23.6898 11.1174 23.6748C10.1037 23.6133 9.12396 23.4239 8.19486 23.1225C7.84141 23.0084 7.495 22.8773 7.1571 22.7318C2.94658 20.9148 0 16.7258 0 11.8485C0 5.30468 5.30468 0 11.8485 0C18.3924 0 23.6971 5.30468 23.6971 11.8485Z" fill="#33ADC1"/>
<path d="M11.1178 23.6747C9.71814 23.5896 8.38442 23.2613 7.15755 22.7317C11.7459 16.5458 3.80273 10.6539 3.80273 10.6539L4.96036 10.3681L7.80751 9.66553C7.80751 9.66535 16.3786 14.8937 11.1178 23.6747Z" fill="#EAE0D3"/>
<path d="M8.19531 23.1225C7.84186 23.0084 7.49546 22.8773 7.15755 22.7318C11.7459 16.5459 3.80273 10.654 3.80273 10.654L4.96036 10.3682C5.24095 10.5781 5.63364 10.8512 6.03446 11.226C8.12372 13.1775 11.1545 17.3304 8.19531 23.1225Z" fill="#D6C8B0"/>
<path d="M10.6661 6.59411C10.6661 9.15234 8.59242 11.2261 6.03401 11.2261C3.47577 11.2261 1.40206 9.15234 1.40206 6.59411C1.40206 6.21209 1.44798 5.8411 1.53549 5.48602C1.62245 5.13112 1.75063 4.79213 1.91407 4.47484L0 2.56077L3.13678 2.98003L1.52771 0.985148L5.20615 2.03556L4.80515 0C4.80515 0 8.00521 1.76998 9.52568 3.55026C9.64085 3.68224 9.74824 3.82109 9.84822 3.96572C10.3638 4.7124 10.6661 5.61764 10.6661 6.59411Z" fill="#EAE0D3"/>
<path d="M8.52269 5.64864C8.52269 6.2751 8.01484 6.78313 7.38839 6.78313C6.76176 6.78313 6.25391 6.2751 6.25391 5.64864C6.25391 5.02201 6.76176 4.51416 7.38839 4.51416C8.01484 4.51416 8.52269 5.02201 8.52269 5.64864Z" fill="#2F373B"/>
<path d="M19.157 6.39718C18.6913 6.64053 18.2004 6.58538 17.8063 6.45467C17.3454 6.30244 17.0175 6.04806 17.0175 6.04806C17.0175 6.04806 15.3587 4.41965 16.6349 3.71076C17.0204 3.49706 17.3324 3.49796 17.5799 3.60427H17.5805C18.1536 3.84997 18.3837 4.65613 18.3837 4.65613C18.3837 4.65613 18.8457 3.45837 19.8675 3.82104C20.8888 4.18317 20.1664 5.86962 19.157 6.39718Z" fill="#FF648D"/>
<path d="M17.8063 6.45467C17.3454 6.30244 17.0175 6.04806 17.0175 6.04806C17.0175 6.04806 15.3587 4.41965 16.6349 3.71076C17.0204 3.49706 17.3324 3.49796 17.5799 3.60427C17.0151 3.57245 16.9972 5.65393 17.8063 6.45467Z" fill="#EA2F69"/>
<path d="M8.20126 5.28649C8.20126 5.48229 8.04253 5.64102 7.84672 5.64102C7.65092 5.64102 7.49219 5.48229 7.49219 5.28649C7.49219 5.09087 7.65092 4.93213 7.84672 4.93213C8.04253 4.93213 8.20126 5.09087 8.20126 5.28649Z" fill="white"/>
<path d="M17.4323 6.9458C17.4323 8.67383 12.7289 13.9205 15.8013 16.0947C16.5693 16.6384 17.4171 16.8155 18.2569 16.7758C19.0965 16.8157 19.9442 16.6384 20.7124 16.0947C23.7846 13.9205 19.0813 8.67383 19.0813 6.9458" fill="#FF648D"/>
<path d="M18.1297 16.7796C17.3313 16.7969 16.5304 16.6109 15.8013 16.0947C12.7289 13.9205 17.4324 8.67365 17.4324 6.9458H17.9365C17.9365 8.67365 16.1088 13.9205 17.3028 16.0947C17.5626 16.5677 17.8459 16.7636 18.1297 16.7796Z" fill="#EA2F69"/>
<path d="M18.1289 16.7797C18.171 16.7793 18.2132 16.7777 18.2553 16.7759C18.2132 16.7811 18.171 16.7826 18.1289 16.7797Z" fill="#EA2F69"/>
<path d="M18.384 16.7797C18.3419 16.7826 18.2999 16.7811 18.2578 16.7759C18.2999 16.7777 18.3419 16.7793 18.384 16.7797Z" fill="#EA2F69"/>
<path d="M21.349 6.64141L9.62687 8.57917C9.62687 8.57917 9.21773 7.95868 9.06876 7.13607C8.93624 6.40259 9.01073 5.5082 9.76861 4.75049L21.349 6.64141Z" fill="#FFD62C"/>
<path d="M21.3486 6.6416L9.62647 8.57935C9.62647 8.57935 9.21733 7.95887 9.06836 7.13625L21.3486 6.6416Z" fill="#FFB92E"/>
<path d="M6.03401 11.2263C3.47577 11.2263 1.40206 9.15255 1.40206 6.59431C1.40206 6.21229 1.44798 5.8413 1.53549 5.48622C1.62245 5.13132 1.75063 4.79234 1.91407 4.47504L0 2.56097L3.13678 2.98023L1.52771 0.985352L5.27774 3.0963C5.27774 3.0963 2.96159 3.94748 2.96159 6.64168C2.96159 9.33587 6.03401 11.2263 6.03401 11.2263Z" fill="#D6C8B0"/>
</g>
<defs>
<clipPath id="clip0_9310_12017">
<rect width="23.6971" height="23.6971" fill="white"/>
</clipPath>
</defs>
</svg>
